<svg width="81" height="80" viewBox="0 0 81 80" fill="none" xmlns="http://www.w3.org/2000/svg">
  <g clip-path="url(#clip0_228_54009)">
    <path d="M30.5 52.7001V60.9001M39.6 19.1001V30.9001M57.8 26.3001H56M57.8 22.7001H56M30.5 22.7001V30.9001M22.3 40.0001H28.7M22.3 43.6001H28.7M63.3 38.2001H66.9V32.7001H63.3V38.2001ZM30.5 59.1001H34.1V55.5001H30.5V59.1001ZM52.4 27.3001H56V21.8001H52.4V27.3001ZM51.4 28.2001H39.5V20.9001H51.4C51.9 20.9001 52.3 21.3001 52.3 21.8001V27.3001C52.4 27.8001 51.9 28.2001 51.4 28.2001ZM30.5 28.2001H36V24.6001H30.5V28.2001ZM17.7 44.6001H22.3V39.1001H17.7V44.6001V44.6001ZM22.3 47.3001H28.7V36.4001H22.3V47.3001V47.3001ZM20.4 32.7001L14 37.3001V41.9001V46.5001L20.4 51.1001H28.6V42.0001V32.9001L20.4 32.7001ZM37.8 52.7001H63.3V30.8001H37.8V52.7001ZM28.6 52.7001H37.7V30.8001H28.6V52.7001Z" stroke="#4E4B66" stroke-width="2.3" stroke-linecap="round" stroke-linejoin="round" />
    <circle cx="40.5" cy="40" r="38.5" stroke="#F56E1E" stroke-width="3" />
  </g>
  <defs>
    <clipPath id="clip0_228_54009">
      <rect width="80" height="80" fill="white" transform="translate(0.5)" />
    </clipPath>
  </defs>
</svg>