<svg width="80" height="80" viewBox="0 0 80 80" fill="none" xmlns="http://www.w3.org/2000/svg">
  <g clip-path="url(#clip0_228_54006)">
    <path d="M27.1 33.1001C26.5 33.1001 25.9 32.6001 25.9 32.0001C25.9 31.4001 26.4 30.9001 27.1 30.9001H30.6C31.2 30.9001 31.8 31.4001 31.8 32.0001C31.8 32.6001 31.3 33.1001 30.6 33.1001H27.1ZM28.3 28.5001C27.6 28.5001 27.1 28.0001 27.1 27.4001C27.1 26.8001 27.6 26.3001 28.3 26.3001H30.6C31.2 26.3001 31.8 26.8001 31.8 27.4001C31.8 28.0001 31.3 28.5001 30.6 28.5001H28.3ZM27.1 23.9001C26.5 23.9001 25.9 23.4001 25.9 22.8001C25.9 22.2001 26.4 21.6001 27.1 21.6001H30.6C31.2 21.6001 31.8 22.1001 31.8 22.8001C31.8 23.4001 31.3 23.9001 30.6 23.9001H27.1ZM40 56.1001C41.3 56.1001 42.3 55.1001 42.3 53.8001C42.3 52.5001 41.2 51.5001 40 51.5001C38.7 51.5001 37.7 52.5001 37.7 53.8001C37.7 55.1001 38.7 56.1001 40 56.1001ZM38.8 49.3001V42.3001C38.8 41.7001 39.3 41.2001 40 41.2001C40.6 41.2001 41.2 41.7001 41.2 42.3001V49.3001C43.2 49.8001 44.7 51.6001 44.7 53.8001C44.7 56.3001 42.6 58.4001 40 58.4001C37.4 58.4001 35.3 56.3001 35.3 53.8001C35.3 51.7001 36.8 49.9001 38.8 49.3001ZM36.5 35.4001C36.5 36.0001 36 36.5001 35.3 36.5001C34.6 36.5001 34.1 36.0001 34.1 35.4001V22.8001C34.1 19.6001 36.7 17.1001 40 17.1001C43.2 17.1001 45.9 19.7001 45.9 22.8001V26.2001C45.9 26.8001 45.4 27.3001 44.7 27.3001C44 27.3001 43.5 26.8001 43.5 26.2001V22.8001C43.5 20.9001 41.9 19.3001 40 19.3001C38.1 19.3001 36.5 20.8001 36.5 22.8001V35.4001ZM49.4 53.8001C49.4 58.9001 45.2 63.0001 40 63.0001C34.8 63.0001 30.6 58.9001 30.6 53.8001C30.6 50.8001 32.1 48.0001 34.6 46.3001C35.1 45.9001 35.9 46.1001 36.2 46.6001C36.6 47.1001 36.4 47.8001 35.9 48.2001C34 49.5001 32.9 51.6001 32.9 53.9001C32.9 57.7001 36.1 60.8001 39.9 60.8001C43.8 60.8001 46.9 57.7001 46.9 53.9001C46.9 51.6001 45.8 49.5001 43.9 48.2001C43.6 48.0001 43.4 47.6001 43.4 47.3001V37.8001C43.4 37.2001 43.9 36.6001 44.6 36.6001C45.2 36.6001 45.8 37.1001 45.8 37.8001V46.7001C48.1 48.3001 49.4 51.0001 49.4 53.8001ZM30.3 47.7001C30 47.9001 29.7 48.0001 29.4 48.0001H22.4C21.8 48.0001 21.2 47.5001 21.2 46.9001C21.2 46.3001 21.7 45.8001 22.4 45.8001H29L49.8 25.4001C50 25.2001 50.3 25.1001 50.6 25.1001H57.6C58.2 25.1001 58.8 25.6001 58.8 26.2001C58.8 26.8001 58.3 27.3001 57.6 27.3001H51L30.3 47.7001Z" fill="#4E4B66" />
    <circle cx="40" cy="40" r="38.5" stroke="#DE5703" stroke-width="3" />
  </g>
  <defs>
    <clipPath id="clip0_228_54006">
      <rect width="80" height="80" fill="white" />
    </clipPath>
  </defs>
</svg>