<svg width="80" height="80" viewBox="0 0 80 80" fill="none" xmlns="http://www.w3.org/2000/svg">
  <g clip-path="url(#clip0_228_53994)">
    <path d="M37.7 20.9999H40V59.1999H37.7V55.3999C37.7 54.9999 37.3 54.5999 36.9 54.5999H34.6C33.3 54.5999 32.3 53.5999 32.3 52.2999V27.8999C32.3 26.6999 33.3 25.5999 34.6 25.5999H36.9C37.3 25.5999 37.7 25.1999 37.7 24.7999V20.9999ZM37 19.3999C36.6 19.3999 36.2 19.7999 36.2 20.1999V23.9999H34.7C32.6 23.9999 30.8 25.6999 30.8 27.7999V52.2999C30.8 54.3999 32.5 56.0999 34.7 56.0999H36.2V59.8999C36.2 60.2999 36.6 60.6999 37 60.6999H40.9C41.3 60.6999 41.7 60.2999 41.7 59.8999V20.1999C41.7 19.7999 41.3 19.3999 40.9 19.3999C40.8 19.3999 37 19.3999 37 19.3999Z" fill="#4E4B66" stroke="#4E4B66" stroke-width="0.6158" stroke-miterlimit="10" />
    <path d="M37.7 20.9999H40V59.1999H37.7V55.3999C37.7 54.9999 37.3 54.5999 36.9 54.5999H34.6C33.3 54.5999 32.3 53.5999 32.3 52.2999V27.8999C32.3 26.6999 33.3 25.5999 34.6 25.5999H36.9C37.3 25.5999 37.7 25.1999 37.7 24.7999V20.9999ZM37 19.3999C36.6 19.3999 36.2 19.7999 36.2 20.1999V23.9999H34.7C32.6 23.9999 30.8 25.6999 30.8 27.7999V52.2999C30.8 54.3999 32.5 56.0999 34.7 56.0999H36.2V59.8999C36.2 60.2999 36.6 60.6999 37 60.6999H40.9C41.3 60.6999 41.7 60.2999 41.7 59.8999V20.1999C41.7 19.7999 41.3 19.3999 40.9 19.3999C40.8 19.3999 37 19.3999 37 19.3999Z" fill="#4E4B66" stroke="#4E4B66" stroke-width="0.6158" stroke-miterlimit="10" />
    <path d="M37 27H31.6V28.6H37V27Z" fill="#4E4B66" stroke="#4E4B66" stroke-width="0.6158" stroke-miterlimit="10" />
    <path d="M37 27H31.6V28.6H37V27Z" fill="#4E4B66" stroke="#4E4B66" stroke-width="0.6158" stroke-miterlimit="10" />
    <path d="M37 30.2H31.6V31.7999H37V30.2Z" fill="#4E4B66" stroke="#4E4B66" stroke-width="0.6158" stroke-miterlimit="10" />
    <path d="M37 30.2H31.6V31.7999H37V30.2Z" fill="#4E4B66" stroke="#4E4B66" stroke-width="0.6158" stroke-miterlimit="10" />
    <path d="M37 33.2H31.6V34.7999H37V33.2Z" fill="#4E4B66" stroke="#4E4B66" stroke-width="0.6158" stroke-miterlimit="10" />
    <path d="M37 33.2H31.6V34.7999H37V33.2Z" fill="#4E4B66" stroke="#4E4B66" stroke-width="0.6158" stroke-miterlimit="10" />
    <path d="M37 36.2H31.6V37.7999H37V36.2Z" fill="#4E4B66" stroke="#4E4B66" stroke-width="0.6158" stroke-miterlimit="10" />
    <path d="M37 36.2H31.6V37.7999H37V36.2Z" fill="#4E4B66" stroke="#4E4B66" stroke-width="0.6158" stroke-miterlimit="10" />
    <path d="M37 39.2H31.6V40.7999H37V39.2Z" fill="#4E4B66" stroke="#4E4B66" stroke-width="0.6158" stroke-miterlimit="10" />
    <path d="M37 39.2H31.6V40.7999H37V39.2Z" fill="#4E4B66" stroke="#4E4B66" stroke-width="0.6158" stroke-miterlimit="10" />
    <path d="M37 42.2998H31.6V43.8998H37V42.2998Z" fill="#4E4B66" stroke="#4E4B66" stroke-width="0.6158" stroke-miterlimit="10" />
    <path d="M37 42.2998H31.6V43.8998H37V42.2998Z" fill="#4E4B66" stroke="#4E4B66" stroke-width="0.6158" stroke-miterlimit="10" />
    <path d="M37 45.2998H31.6V46.8998H37V45.2998Z" fill="#4E4B66" stroke="#4E4B66" stroke-width="0.6158" stroke-miterlimit="10" />
    <path d="M37 45.2998H31.6V46.8998H37V45.2998Z" fill="#4E4B66" stroke="#4E4B66" stroke-width="0.6158" stroke-miterlimit="10" />
    <path d="M37 48.3999H31.6V49.9999H37V48.3999Z" fill="#4E4B66" stroke="#4E4B66" stroke-width="0.6158" stroke-miterlimit="10" />
    <path d="M37 48.3999H31.6V49.9999H37V48.3999Z" fill="#4E4B66" stroke="#4E4B66" stroke-width="0.6158" stroke-miterlimit="10" />
    <path d="M37 51.5H31.6V53.1H37V51.5Z" fill="#4E4B66" stroke="#4E4B66" stroke-width="0.6158" stroke-miterlimit="10" />
    <path d="M37 51.5H31.6V53.1H37V51.5Z" fill="#4E4B66" stroke="#4E4B66" stroke-width="0.6158" stroke-miterlimit="10" />
    <path d="M55.2 20.9999H53V59.1999H55.3V55.3999C55.3 54.9999 55.7 54.5999 56.1 54.5999H58.4C59.7 54.5999 60.7 53.5999 60.7 52.2999V27.8999C60.7 26.6999 59.7 25.5999 58.4 25.5999H56C55.6 25.5999 55.2 25.1999 55.2 24.7999V20.9999ZM56 19.3999C56.4 19.3999 56.8 19.7999 56.8 20.1999V23.9999H58.3C60.4 23.9999 62.2 25.6999 62.2 27.7999V52.2999C62.2 54.3999 60.5 56.0999 58.3 56.0999H56.8V59.8999C56.8 60.2999 56.4 60.6999 56 60.6999H52.1C51.7 60.6999 51.3 60.2999 51.3 59.8999V20.1999C51.3 19.7999 51.7 19.3999 52.1 19.3999C52.1 19.3999 56 19.3999 56 19.3999Z" fill="#4E4B66" stroke="#4E4B66" stroke-width="0.6158" stroke-miterlimit="10" />
    <path d="M55.2 20.9999H53V59.1999H55.3V55.3999C55.3 54.9999 55.7 54.5999 56.1 54.5999H58.4C59.7 54.5999 60.7 53.5999 60.7 52.2999V27.8999C60.7 26.6999 59.7 25.5999 58.4 25.5999H56C55.6 25.5999 55.2 25.1999 55.2 24.7999V20.9999ZM56 19.3999C56.4 19.3999 56.8 19.7999 56.8 20.1999V23.9999H58.3C60.4 23.9999 62.2 25.6999 62.2 27.7999V52.2999C62.2 54.3999 60.5 56.0999 58.3 56.0999H56.8V59.8999C56.8 60.2999 56.4 60.6999 56 60.6999H52.1C51.7 60.6999 51.3 60.2999 51.3 59.8999V20.1999C51.3 19.7999 51.7 19.3999 52.1 19.3999C52.1 19.3999 56 19.3999 56 19.3999Z" fill="#4E4B66" stroke="#4E4B66" stroke-width="0.6158" stroke-miterlimit="10" />
    <path d="M61.4 27H56V28.6H61.4V27Z" fill="#4E4B66" stroke="#4E4B66" stroke-width="0.6158" stroke-miterlimit="10" />
    <path d="M61.4 27H56V28.6H61.4V27Z" fill="#4E4B66" stroke="#4E4B66" stroke-width="0.6158" stroke-miterlimit="10" />
    <path d="M61.4 30.2H56V31.7999H61.4V30.2Z" fill="#4E4B66" stroke="#4E4B66" stroke-width="0.6158" stroke-miterlimit="10" />
    <path d="M61.4 30.2H56V31.7999H61.4V30.2Z" fill="#4E4B66" stroke="#4E4B66" stroke-width="0.6158" stroke-miterlimit="10" />
    <path d="M61.4 33.2H56V34.7999H61.4V33.2Z" fill="#4E4B66" stroke="#4E4B66" stroke-width="0.6158" stroke-miterlimit="10" />
    <path d="M61.4 33.2H56V34.7999H61.4V33.2Z" fill="#4E4B66" stroke="#4E4B66" stroke-width="0.6158" stroke-miterlimit="10" />
    <path d="M61.4 36.2H56V37.7999H61.4V36.2Z" fill="#4E4B66" stroke="#4E4B66" stroke-width="0.6158" stroke-miterlimit="10" />
    <path d="M61.4 36.2H56V37.7999H61.4V36.2Z" fill="#4E4B66" stroke="#4E4B66" stroke-width="0.6158" stroke-miterlimit="10" />
    <path d="M61.4 39.2H56V40.7999H61.4V39.2Z" fill="#4E4B66" stroke="#4E4B66" stroke-width="0.6158" stroke-miterlimit="10" />
    <path d="M61.4 39.2H56V40.7999H61.4V39.2Z" fill="#4E4B66" stroke="#4E4B66" stroke-width="0.6158" stroke-miterlimit="10" />
    <path d="M61.4 42.2998H56V43.8998H61.4V42.2998Z" fill="#4E4B66" stroke="#4E4B66" stroke-width="0.6158" stroke-miterlimit="10" />
    <path d="M61.4 42.2998H56V43.8998H61.4V42.2998Z" fill="#4E4B66" stroke="#4E4B66" stroke-width="0.6158" stroke-miterlimit="10" />
    <path d="M61.4 45.2998H56V46.8998H61.4V45.2998Z" fill="#4E4B66" stroke="#4E4B66" stroke-width="0.6158" stroke-miterlimit="10" />
    <path d="M61.4 45.2998H56V46.8998H61.4V45.2998Z" fill="#4E4B66" stroke="#4E4B66" stroke-width="0.6158" stroke-miterlimit="10" />
    <path d="M61.4 48.3999H56V49.9999H61.4V48.3999Z" fill="#4E4B66" stroke="#4E4B66" stroke-width="0.6158" stroke-miterlimit="10" />
    <path d="M61.4 48.3999H56V49.9999H61.4V48.3999Z" fill="#4E4B66" stroke="#4E4B66" stroke-width="0.6158" stroke-miterlimit="10" />
    <path d="M61.4 51.5H56V53.1H61.4V51.5Z" fill="#4E4B66" stroke="#4E4B66" stroke-width="0.6158" stroke-miterlimit="10" />
    <path d="M61.4 51.5H56V53.1H61.4V51.5Z" fill="#4E4B66" stroke="#4E4B66" stroke-width="0.6158" stroke-miterlimit="10" />
    <path d="M27 30.0999C26.5 30.0999 26.2 30.4999 26.2 30.8999V49.2999C26.2 49.6999 26.6 50.0999 27 50.0999C27.5 50.0999 27.9 49.7999 27.9 49.2999V30.9999C27.9 30.3999 27.5 30.0999 27 30.0999Z" fill="#4E4B66" stroke="#4E4B66" stroke-width="0.6158" stroke-miterlimit="10" />
    <path d="M27 30.0999C26.5 30.0999 26.2 30.4999 26.2 30.8999V49.2999C26.2 49.6999 26.6 50.0999 27 50.0999C27.5 50.0999 27.9 49.7999 27.9 49.2999V30.9999C27.9 30.3999 27.5 30.0999 27 30.0999Z" fill="#4E4B66" stroke="#4E4B66" stroke-width="0.6158" stroke-miterlimit="10" />
    <path d="M17.9 30.0999C17.4 30.0999 17.1 30.4999 17.1 30.8999V49.2999C17.1 49.6999 17.5 50.0999 17.9 50.0999C18.4 50.0999 18.8 49.7999 18.8 49.2999V30.9999C18.7 30.3999 18.4 30.0999 17.9 30.0999Z" fill="#4E4B66" stroke="#4E4B66" stroke-width="0.6158" stroke-miterlimit="10" />
    <path d="M17.9 30.0999C17.4 30.0999 17.1 30.4999 17.1 30.8999V49.2999C17.1 49.6999 17.5 50.0999 17.9 50.0999C18.4 50.0999 18.8 49.7999 18.8 49.2999V30.9999C18.7 30.3999 18.4 30.0999 17.9 30.0999Z" fill="#4E4B66" stroke="#4E4B66" stroke-width="0.6158" stroke-miterlimit="10" />
    <path d="M27 31.7H17.8V33.2999H27V31.7Z" fill="#4E4B66" stroke="#4E4B66" stroke-width="0.6158" stroke-miterlimit="10" />
    <path d="M27 31.7H17.8V33.2999H27V31.7Z" fill="#4E4B66" stroke="#4E4B66" stroke-width="0.6158" stroke-miterlimit="10" />
    <path d="M24.8 32.3999H23.2V47.6999H24.8V32.3999Z" fill="#4E4B66" stroke="#4E4B66" stroke-width="0.6158" stroke-miterlimit="10" />
    <path d="M24.8 32.3999H23.2V47.6999H24.8V32.3999Z" fill="#4E4B66" stroke="#4E4B66" stroke-width="0.6158" stroke-miterlimit="10" />
    <path d="M21.8 32.3999H20.2V47.6999H21.8V32.3999Z" fill="#4E4B66" stroke="#4E4B66" stroke-width="0.6158" stroke-miterlimit="10" />
    <path d="M21.8 32.3999H20.2V47.6999H21.8V32.3999Z" fill="#4E4B66" stroke="#4E4B66" stroke-width="0.6158" stroke-miterlimit="10" />
    <path d="M27 46.8999H17.8V48.4999H27V46.8999Z" fill="#4E4B66" stroke="#4E4B66" stroke-width="0.6158" stroke-miterlimit="10" />
    <path d="M27 46.8999H17.8V48.4999H27V46.8999Z" fill="#4E4B66" stroke="#4E4B66" stroke-width="0.6158" stroke-miterlimit="10" />
    <path d="M33.2 36.2H27V37.7999H33.2V36.2Z" fill="#4E4B66" stroke="#4E4B66" stroke-width="0.6158" stroke-miterlimit="10" />
    <path d="M33.2 36.2H27V37.7999H33.2V36.2Z" fill="#4E4B66" stroke="#4E4B66" stroke-width="0.6158" stroke-miterlimit="10" />
    <path d="M33.2 42.2998H27V43.8998H33.2V42.2998Z" fill="#4E4B66" stroke="#4E4B66" stroke-width="0.6158" stroke-miterlimit="10" />
    <path d="M33.2 42.2998H27V43.8998H33.2V42.2998Z" fill="#4E4B66" stroke="#4E4B66" stroke-width="0.6158" stroke-miterlimit="10" />
    <path d="M52.3 22.5H40.7V24.1H52.3V22.5Z" fill="#4E4B66" stroke="#4E4B66" stroke-width="0.6158" stroke-miterlimit="10" />
    <path d="M52.3 22.5H40.7V24.1H52.3V22.5Z" fill="#4E4B66" stroke="#4E4B66" stroke-width="0.6158" stroke-miterlimit="10" />
    <path d="M52.3 56H40.7V57.6H52.3V56Z" fill="#4E4B66" stroke="#4E4B66" stroke-width="0.6158" stroke-miterlimit="10" />
    <path d="M52.3 56H40.7V57.6H52.3V56Z" fill="#4E4B66" stroke="#4E4B66" stroke-width="0.6158" stroke-miterlimit="10" />
    <path d="M44.5 27.1H48.4V28.6H44.5V27.1ZM44.5 25.5C43.6 25.5 43 26.2 43 27V28.6C43 29.5 43.7 30.1 44.5 30.1H48.4C49.3 30.1 49.9 29.4 49.9 28.6V27.1C49.9 26.2 49.2 25.6 48.4 25.6L44.5 25.5Z" fill="#4E4B66" stroke="#4E4B66" stroke-width="0.6158" stroke-miterlimit="10" />
    <path d="M44.5 27.1H48.4V28.6H44.5V27.1ZM44.5 25.5C43.6 25.5 43 26.2 43 27V28.6C43 29.5 43.7 30.1 44.5 30.1H48.4C49.3 30.1 49.9 29.4 49.9 28.6V27.1C49.9 26.2 49.2 25.6 48.4 25.6L44.5 25.5Z" fill="#4E4B66" stroke="#4E4B66" stroke-width="0.6158" stroke-miterlimit="10" />
    <path d="M44.5 33.2H48.4V34.7H44.5V33.2ZM44.5 31.7C43.6 31.7 43 32.4 43 33.2V34.7C43 35.6 43.7 36.2 44.5 36.2H48.4C49.3 36.2 49.9 35.5 49.9 34.7V33.2C49.9 32.3 49.2 31.7 48.4 31.7C48.4 31.7 44.5 31.7 44.5 31.7Z" fill="#4E4B66" stroke="#4E4B66" stroke-width="0.6158" stroke-miterlimit="10" />
    <path d="M44.5 33.2H48.4V34.7H44.5V33.2ZM44.5 31.7C43.6 31.7 43 32.4 43 33.2V34.7C43 35.6 43.7 36.2 44.5 36.2H48.4C49.3 36.2 49.9 35.5 49.9 34.7V33.2C49.9 32.3 49.2 31.7 48.4 31.7C48.4 31.7 44.5 31.7 44.5 31.7Z" fill="#4E4B66" stroke="#4E4B66" stroke-width="0.6158" stroke-miterlimit="10" />
    <path d="M44.5 39.2H48.4V40.7H44.5V39.2ZM44.5 37.7C43.6 37.7 43 38.4 43 39.2V40.7C43 41.6 43.7 42.2 44.5 42.2H48.4C49.3 42.2 49.9 41.5 49.9 40.7V39.2C49.9 38.3 49.2 37.7 48.4 37.7H44.5Z" fill="#4E4B66" stroke="#4E4B66" stroke-width="0.6158" stroke-miterlimit="10" />
    <path d="M44.5 39.2H48.4V40.7H44.5V39.2ZM44.5 37.7C43.6 37.7 43 38.4 43 39.2V40.7C43 41.6 43.7 42.2 44.5 42.2H48.4C49.3 42.2 49.9 41.5 49.9 40.7V39.2C49.9 38.3 49.2 37.7 48.4 37.7H44.5Z" fill="#4E4B66" stroke="#4E4B66" stroke-width="0.6158" stroke-miterlimit="10" />
    <path d="M44.5 45.3998H48.4V46.8998H44.5V45.3998ZM44.5 43.7998C43.6 43.7998 43 44.4998 43 45.2998V46.7998C43 47.6998 43.7 48.2998 44.5 48.2998H48.4C49.3 48.2998 49.9 47.5998 49.9 46.7998V45.2998C49.9 44.3998 49.2 43.7998 48.4 43.7998H44.5Z" fill="#4E4B66" stroke="#4E4B66" stroke-width="0.6158" stroke-miterlimit="10" />
    <path d="M44.5 45.3998H48.4V46.8998H44.5V45.3998ZM44.5 43.7998C43.6 43.7998 43 44.4998 43 45.2998V46.7998C43 47.6998 43.7 48.2998 44.5 48.2998H48.4C49.3 48.2998 49.9 47.5998 49.9 46.7998V45.2998C49.9 44.3998 49.2 43.7998 48.4 43.7998H44.5Z" fill="#4E4B66" stroke="#4E4B66" stroke-width="0.6158" stroke-miterlimit="10" />
    <path d="M44.5 51.4999H48.4V52.9999H44.5V51.4999ZM44.5 49.8999C43.6 49.8999 43 50.5999 43 51.3999V52.9999C43 53.8999 43.7 54.4999 44.5 54.4999H48.4C49.3 54.4999 49.9 53.7999 49.9 52.9999V51.4999C49.9 50.5999 49.2 49.9999 48.4 49.9999H44.5V49.8999Z" fill="#4E4B66" stroke="#4E4B66" stroke-width="0.6158" stroke-miterlimit="10" />
    <path d="M44.5 51.4999H48.4V52.9999H44.5V51.4999ZM44.5 49.8999C43.6 49.8999 43 50.5999 43 51.3999V52.9999C43 53.8999 43.7 54.4999 44.5 54.4999H48.4C49.3 54.4999 49.9 53.7999 49.9 52.9999V51.4999C49.9 50.5999 49.2 49.9999 48.4 49.9999H44.5V49.8999Z" fill="#4E4B66" stroke="#4E4B66" stroke-width="0.6158" stroke-miterlimit="10" />
    <path d="M62.2 21H56V22.6H62.2V21Z" fill="#4E4B66" stroke="#4E4B66" stroke-width="0.6158" stroke-miterlimit="10" />
    <path d="M62.2 21H56V22.6H62.2V21Z" fill="#4E4B66" stroke="#4E4B66" stroke-width="0.6158" stroke-miterlimit="10" />
    <circle cx="40" cy="40" r="38.5" stroke="#F56E1E" stroke-width="3" />
  </g>
  <defs>
    <clipPath id="clip0_228_53994">
      <rect width="80" height="80" fill="white" />
    </clipPath>
  </defs>
</svg>