<svg width="27" height="26" viewBox="0 0 27 26" fill="none" xmlns="http://www.w3.org/2000/svg">
  <path d="M22.6232 17.4288C19.9266 15.8344 16.7682 14.9164 13.5007 14.7771C10.2331 14.9164 7.07478 15.8344 4.37812 17.4288C3.69063 17.8746 3.12669 18.4463 2.72701 19.1025C2.32732 19.7587 2.10186 20.4831 2.06688 21.2233L1.6875 24.6509H25.3125L24.9345 21.2233C24.8994 20.4831 24.6739 19.7587 24.2742 19.1025C23.8745 18.4464 23.3106 17.8747 22.6232 17.4288V17.4288Z" stroke="#6E7191" stroke-width="2" stroke-linecap="round" stroke-linejoin="round" />
  <path d="M13.5 11.1509C14.5013 11.1509 15.48 10.854 16.3126 10.2977C17.1451 9.74142 17.794 8.95077 18.1771 8.02571C18.5603 7.10066 18.6606 6.08276 18.4652 5.10074C18.2699 4.11871 17.7877 3.21666 17.0797 2.50865C16.3717 1.80065 15.4697 1.31849 14.4876 1.12316C13.5056 0.927818 12.4877 1.02807 11.5627 1.41124C10.6376 1.79441 9.84696 2.44328 9.29068 3.27581C8.73441 4.10833 8.4375 5.08711 8.4375 6.08838C8.4375 7.43104 8.97087 8.7187 9.92027 9.66811C10.8697 10.6175 12.1573 11.1509 13.5 11.1509V11.1509Z" stroke="#6E7191" stroke-width="2" stroke-linecap="round" stroke-linejoin="round" />
</svg>