<svg width="25" height="26" viewBox="0 0 25 26" fill="none" xmlns="http://www.w3.org/2000/svg">
  <path d="M14.0602 18.9632L22.3635 24.5328C22.4661 24.6016 22.5862 24.642 22.7108 24.6496C22.8354 24.6571 22.9598 24.6316 23.0705 24.5757C23.1812 24.5199 23.2739 24.4358 23.3386 24.3326C23.4033 24.2295 23.4375 24.1112 23.4375 23.9906V6.30726C23.4375 4.90655 22.8613 3.56321 21.8357 2.57276C20.81 1.58231 19.4189 1.02588 17.9684 1.02588H7.03156C5.58107 1.02588 4.19 1.58231 3.16435 2.57276C2.1387 3.56321 1.5625 4.90655 1.5625 6.30726V23.9894C1.56251 24.11 1.59672 24.2283 1.66141 24.3315C1.72611 24.4346 1.81882 24.5187 1.92949 24.5746C2.04016 24.6304 2.16457 24.656 2.2892 24.6484C2.41384 24.6408 2.53394 24.6004 2.63649 24.5316L10.941 18.962C11.399 18.6551 11.9433 18.4907 12.5008 18.4909C13.0583 18.4911 13.6025 18.6559 14.0602 18.9632V18.9632Z" stroke="#6E7191" stroke-width="2" stroke-linecap="round" stroke-linejoin="round" />
</svg>